HIERARCHY
ROOT joint_0
{
	OFFSET 0.000000 0.000000 0.000000
	CHANNELS 6 Xposition Yposition Zposition Zrotation Yrotation Xrotation 
	JOINT joint_1
	{
		OFFSET 10.084412 4.114712 95.061035
		CHANNELS 3 Zrotation Yrotation Xrotation
		JOINT joint_2
		{
			OFFSET -1.615463 4.243484 87.329956
			CHANNELS 3 Zrotation Yrotation Xrotation
			JOINT joint_3
			{
				OFFSET -3.579636 4.638191 87.154053
				CHANNELS 3 Zrotation Yrotation Xrotation
				JOINT joint_4
				{
					OFFSET 5.443451 7.217075 123.562988
					CHANNELS 3 Zrotation Yrotation Xrotation
					JOINT joint_5
					{
						OFFSET 21.688065 15.141808 90.458008
						CHANNELS 3 Zrotation Yrotation Xrotation
						End Site
						{
							OFFSET 0.000000 0.000000 0.000000
						}
					}
				}
				JOINT joint_6
				{
					OFFSET 3.611374 -22.863556 70.791992
					CHANNELS 3 Zrotation Yrotation Xrotation
					JOINT joint_7
					{
						OFFSET 3.493607 -153.029137 -12.665039
						CHANNELS 3 Zrotation Yrotation Xrotation
						JOINT joint_8
						{
							OFFSET -14.929443 -32.628616 -254.032959
							CHANNELS 3 Zrotation Yrotation Xrotation
							JOINT joint_9
							{
								OFFSET 11.589401 -3.548126 -242.255005
								CHANNELS 3 Zrotation Yrotation Xrotation
								End Site
								{
									OFFSET 0.000000 0.000000 0.000000
								}
							}
						}
					}
				}
				JOINT joint_10
				{
					OFFSET 2.651962 30.943008 67.690918
					CHANNELS 3 Zrotation Yrotation Xrotation
					JOINT joint_11
					{
						OFFSET -6.172562 150.392159 -30.576904
						CHANNELS 3 Zrotation Yrotation Xrotation
						JOINT joint_12
						{
							OFFSET 15.363358 20.741959 -255.254028
							CHANNELS 3 Zrotation Yrotation Xrotation
							JOINT joint_13
							{
								OFFSET 23.282578 -11.086121 -241.182983
								CHANNELS 3 Zrotation Yrotation Xrotation
								End Site
								{
									OFFSET 0.000000 0.000000 0.000000
								}
							}
						}
					}
				}
			}
		}
	}
	JOINT joint_14
	{
		OFFSET -7.080551 -92.910816 -106.291992
		CHANNELS 3 Zrotation Yrotation Xrotation
		JOINT joint_15
		{
			OFFSET -38.248322 -6.001282 -411.906006
			CHANNELS 3 Zrotation Yrotation Xrotation
			JOINT joint_16
			{
				OFFSET -11.189407 -11.244659 -448.150986
				CHANNELS 3 Zrotation Yrotation Xrotation
				JOINT joint_17
				{
					OFFSET 169.870491 -24.631378 -80.352999
					CHANNELS 3 Zrotation Yrotation Xrotation
					End Site
					{
						OFFSET 0.000000 0.000000 0.000000
					}
				}
			}
		}
	}
	JOINT joint_18
	{
		OFFSET -2.796600 85.817772 -112.273987
		CHANNELS 3 Zrotation Yrotation Xrotation
		JOINT joint_19
		{
			OFFSET -44.395859 -8.174402 -411.255005
			CHANNELS 3 Zrotation Yrotation Xrotation
			JOINT joint_20
			{
				OFFSET -25.617508 -5.555587 -447.666992
				CHANNELS 3 Zrotation Yrotation Xrotation
				JOINT joint_21
				{
					OFFSET 163.870811 53.215703 -78.867000
					CHANNELS 3 Zrotation Yrotation Xrotation
					End Site
					{
						OFFSET 0.000000 0.000000 0.000000
					}
				}
			}
		}
	}
}
MOTION
Frames: 13
Frame Time: 0.016667
499.691223 -106.012970 1073.688965 2.810024 2.442903 2.217089 0.241206 -4.181674 0.252582 0.158902 0.801992 0.053686 0.256386 -0.875578 0.007466 -1.985510 5.540178 3.986309 0.000000 0.000000 0.000000 -2.512469 1.860877 -2.569611 0.043512 1.548675 -7.529977 0.345499 -6.846056 5.391530 0.000000 0.000000 0.000000 0.230156 4.703518 3.864690 2.437863 5.076718 8.453471 -0.684256 -22.523904 -14.453292 0.000000 0.000000 0.000000 -1.351903 -12.222067 -0.931167 -1.904760 20.836570 3.258408 -1.134697 -3.883469 -1.081305 0.000000 0.000000 0.000000 -1.659568 -8.991492 -0.996825 -1.761640 12.113580 -2.026825 -1.665518 -1.523265 -0.294038 0.000000 0.000000 0.000000 
506.788208 -105.226227 1075.446045 2.803520 1.621241 2.202441 0.083202 -3.518958 0.608297 0.171762 0.815696 -0.148929 0.288627 -0.710439 -0.026931 -2.060003 6.023122 3.871992 0.000000 0.000000 0.000000 -2.413933 1.954058 -3.261134 -0.043153 1.657929 -8.399790 0.378609 -8.329237 5.748219 0.000000 0.000000 0.000000 0.341792 4.308039 4.571252 2.702893 4.646185 10.457750 -0.609372 -24.368587 -15.244612 0.000000 0.000000 0.000000 -1.465852 -15.793419 -1.540922 -1.775170 29.496331 3.829887 -0.655828 -2.306358 -0.626248 0.000000 0.000000 0.000000 -1.786898 -8.622246 -1.138409 -1.714075 13.819434 -1.950494 -1.505023 -1.490229 -0.224552 0.000000 0.000000 0.000000 
514.047241 -104.256073 1076.917969 2.904544 0.392658 2.490148 -0.163612 -2.460788 0.527275 0.096281 0.719066 -0.162787 0.218512 -0.496389 -0.057967 -2.139843 6.532714 3.745887 0.000000 0.000000 0.000000 -2.346531 2.064172 -3.853083 -0.115819 1.767296 -9.674294 0.416782 -10.016205 6.114716 0.000000 0.000000 0.000000 0.656514 3.470835 4.954105 2.924550 3.727869 13.064389 -0.531154 -25.303193 -15.825893 0.000000 0.000000 0.000000 -1.704350 -19.856487 -2.771976 -1.309536 39.420726 4.568090 0.479369 1.960153 0.489294 0.000000 0.000000 0.000000 -2.051083 -7.440511 -1.634359 -1.765402 14.805080 -1.849644 -1.381473 -1.228204 -0.247043 0.000000 0.000000 0.000000 
521.823853 -103.355919 1077.432983 3.277101 -0.832553 2.984206 -0.418598 -1.192795 0.005211 -0.143644 0.416316 -0.005390 -0.069004 -0.307431 -0.060647 -2.212380 6.956041 3.649262 0.000000 0.000000 0.000000 -2.295640 2.091190 -4.236530 -0.147588 1.774906 -11.128554 0.452515 -11.588178 6.385908 0.000000 0.000000 0.000000 0.906397 2.460580 5.034012 3.152251 2.643008 15.613419 -0.431294 -25.817623 -16.146785 0.000000 0.000000 0.000000 -2.416037 -23.580229 -4.064415 -0.865288 47.752010 4.789624 1.646960 6.877820 1.670220 0.000000 0.000000 0.000000 -2.414965 -6.084826 -2.346578 -2.022993 15.502490 -1.747536 -1.440419 -1.153101 -0.294158 0.000000 0.000000 0.000000 
530.517883 -102.636711 1076.329956 3.635018 -1.388338 3.353322 -0.706002 -0.565895 -0.397286 -0.422978 0.170409 0.058734 -0.407093 -0.199807 -0.043586 -2.256246 7.207242 3.595672 0.000000 0.000000 0.000000 -2.209837 1.973555 -4.316847 -0.118245 1.619944 -12.662406 0.481054 -12.803080 6.491034 0.000000 0.000000 0.000000 0.914823 1.502381 4.972425 3.465624 1.670440 17.525319 -0.256885 -26.347474 -16.138860 0.000000 0.000000 0.000000 -3.787001 -27.272517 -4.589667 -0.780062 54.079795 3.948735 1.661094 8.938881 1.949806 0.000000 0.000000 0.000000 -2.902470 -5.201667 -2.781874 -2.423857 15.967870 -1.785153 -1.680895 -1.743947 -0.210010 0.000000 0.000000 0.000000 
539.993042 -101.998886 1073.869019 3.872857 -1.401238 3.620183 -1.105224 -0.579701 -0.638266 -0.666745 0.055650 0.018433 -0.693097 -0.142608 -0.018133 -2.274261 7.336353 3.565257 0.000000 0.000000 0.000000 -2.100429 1.738660 -4.127405 -0.025544 1.326841 -14.369780 0.509303 -13.772174 6.479249 0.000000 0.000000 0.000000 0.796205 0.485172 4.768184 3.841931 0.691553 19.066461 -0.030899 -26.708093 -15.840855 0.000000 0.000000 0.000000 -5.624232 -31.369251 -4.407548 -0.854674 59.663125 2.336873 0.597787 8.718217 1.487545 0.000000 0.000000 0.000000 -3.492959 -4.578067 -2.974964 -2.909163 16.043847 -1.949456 -2.042353 -2.873391 -0.006300 0.000000 0.000000 0.000000 
549.538086 -101.721924 1070.973022 4.077180 -1.402439 3.819870 -1.422241 -0.493901 -0.818778 -0.883814 -0.036284 -0.006055 -0.954716 -0.076755 0.001713 -2.268847 7.361178 3.520666 0.000000 0.000000 0.000000 -2.083254 1.393599 -3.938306 0.058789 0.922216 -15.792810 0.534518 -14.704822 6.361786 0.000000 0.000000 0.000000 0.627441 -0.601865 4.516102 4.252370 -0.330594 20.255382 0.187458 -27.184185 -15.694219 0.000000 0.000000 0.000000 -7.110050 -34.988026 -3.938392 -0.828392 62.959848 0.860262 -0.249697 7.414453 0.955564 0.000000 0.000000 0.000000 -3.941112 -4.323833 -3.118284 -3.287312 16.794720 -2.123982 -2.297531 -4.194599 0.308555 0.000000 0.000000 0.000000 
558.386597 -102.047218 1068.319946 4.283224 -1.740705 3.909983 -1.424885 0.283786 -0.924792 -1.126439 -0.176941 0.039220 -1.255154 0.040179 0.001372 -2.229120 7.236936 3.425742 0.000000 0.000000 0.000000 -2.225379 0.905475 -3.959273 0.047312 0.397013 -16.502118 0.546904 -15.776216 6.053055 0.000000 0.000000 0.000000 0.335497 -1.760838 4.363396 4.731640 -1.393038 20.953107 0.401280 -28.127712 -15.984539 0.000000 0.000000 0.000000 -7.667494 -37.438695 -3.553031 -0.642277 62.364151 0.062242 0.113030 5.563723 0.809716 0.000000 0.000000 0.000000 -4.075704 -4.651342 -3.305567 -3.376231 19.156366 -2.207067 -2.235953 -5.437438 0.740388 0.000000 0.000000 0.000000 
566.798950 -102.863098 1065.567017 4.512004 -2.255288 3.852810 -1.254185 1.552650 -0.847963 -1.391175 -0.365320 0.082099 -1.569595 0.184150 -0.019047 -2.150896 6.949678 3.290792 0.000000 0.000000 0.000000 -2.483984 0.274532 -4.110716 -0.047364 -0.249844 -16.640046 0.548996 -16.932312 5.559606 0.000000 0.000000 0.000000 -0.105204 -2.981464 4.324376 5.298817 -2.476633 21.109547 0.643783 -29.481918 -16.565493 0.000000 0.000000 0.000000 -7.509932 -38.723687 -3.234322 -0.380742 57.928688 -0.309257 1.197980 3.641956 0.964889 0.000000 0.000000 0.000000 -4.005236 -5.455167 -3.443001 -3.254446 22.674230 -2.187970 -1.958065 -6.558743 1.228738 0.000000 0.000000 0.000000 
576.164978 -103.957771 1062.354004 4.801792 -2.893009 3.753414 -1.096897 2.795352 -0.641379 -1.593820 -0.572883 0.095706 -1.806842 0.317132 -0.032975 -2.088225 6.734269 3.161477 0.000000 0.000000 0.000000 -2.862244 -0.284815 -4.395400 -0.153406 -0.825134 -16.579404 0.559958 -18.099388 5.275606 0.000000 0.000000 0.000000 -0.201570 -4.223694 4.167327 5.767491 -3.655997 20.980912 0.789046 -30.745222 -17.495038 0.000000 0.000000 0.000000 -6.786939 -38.816785 -3.294063 0.133263 51.374253 -0.160685 2.726841 3.868231 1.628716 0.000000 0.000000 0.000000 -3.915522 -6.158666 -3.449263 -3.162492 26.336787 -2.265673 -1.741926 -7.522744 1.641088 0.000000 0.000000 0.000000 
587.526062 -105.110901 1058.531006 4.700593 -3.370267 3.575937 -0.999513 3.055227 -0.132553 -1.510705 -0.455348 -0.032100 -1.645343 0.430470 -0.023080 -2.092088 6.801995 3.081921 0.000000 0.000000 0.000000 -3.445305 -0.643536 -4.926387 -0.192710 -1.220949 -16.502945 0.603209 -19.167666 5.562134 0.000000 0.000000 0.000000 0.496159 -5.497120 3.665836 5.968963 -5.031881 20.612811 0.705414 -31.483197 -18.839704 0.000000 0.000000 0.000000 -5.158276 -38.044294 -3.684816 1.388988 43.574683 0.720355 4.955275 7.060166 3.015834 0.000000 0.000000 0.000000 -3.811548 -6.615553 -3.098091 -3.084652 29.552386 -2.706476 -1.643075 -8.470974 1.999855 0.000000 0.000000 0.000000 
600.362427 -106.400604 1054.225952 4.535266 -3.929348 3.347256 -0.911850 2.983964 0.572827 -1.303259 -0.265629 -0.254952 -1.341513 0.528302 0.026577 -2.149706 7.063249 3.054949 0.000000 0.000000 0.000000 -4.220647 -0.878738 -5.702143 -0.189899 -1.509656 -16.278771 0.672904 -20.163403 6.270208 0.000000 0.000000 0.000000 1.824489 -6.783009 2.878424 5.961238 -6.537942 19.841834 0.427251 -31.839838 -20.566445 0.000000 0.000000 0.000000 -2.201207 -35.605941 -4.667612 3.851025 32.740405 2.059593 7.656751 13.575136 5.151240 0.000000 0.000000 0.000000 -3.715375 -6.828188 -2.529232 -3.055343 32.675543 -3.361276 -1.684391 -9.317918 2.272964 0.000000 0.000000 0.000000 
614.062988 -108.201172 1049.125000 5.382308 -4.962282 3.474622 -0.934278 3.842039 0.539863 -1.401799 -0.672915 -0.174477 -1.514244 0.590902 0.096071 -2.219362 7.320028 3.052706 0.000000 0.000000 0.000000 -4.785483 -0.928521 -6.194055 -0.262452 -1.616960 -16.256829 0.699882 -21.322321 6.900512 0.000000 0.000000 0.000000 3.306913 -7.887344 1.954633 5.886961 -7.875376 19.110494 0.073960 -32.193721 -22.592730 0.000000 0.000000 0.000000 0.582379 -32.008911 -6.266676 6.337454 22.820237 2.476629 9.254069 20.237419 6.912352 0.000000 0.000000 0.000000 -4.038981 -6.608787 -2.316186 -3.458237 35.771516 -4.071361 -2.146216 -10.008859 2.330987 0.000000 0.000000 0.000000 
